# xmcd
#
# Track frame offsets: 
#        150
#        38062
#        54890
#
# Disc length: 1049 seconds
#
# Revision: 1
# Processed by: cddbd v1.5.2PL0 Copyright (c) Steve Scherf et al.
# Submitted via: ExactAudioCopy v0.99pb3
#
DISCID=19041703
DTITLE=Valentine Brothers - Moneys Too Tight (To Mention) (Single)
DYEAR=1997
DGENRE=Soul
TTITLE0=Moneys Too Tight (To Mention)
TTITLE1=Moneys Too Tight (To Mention) (Radio Edit)
TTITLE2=Moneys Too Tight (To Mention) (Instrumental)
EXTD=
EXTT0=
EXTT1=
EXTT2=
PLAYORDER=
